<?xml version="1.0" standalone="no"?>
<!DOCTYPE svg PUBLIC "-//W3C//DTD SVG 20010904//EN"
 "http://www.w3.org/TR/2001/REC-SVG-20010904/DTD/svg10.dtd">
<svg version="1.0" xmlns="http://www.w3.org/2000/svg"
 width="128.000000pt" height="128.000000pt" viewBox="0 0 128.000000 128.000000"
 preserveAspectRatio="xMidYMid meet">
<metadata>
Created by potrace 1.14, written by Peter Selinger 2001-2017
</metadata>
<g transform="translate(0.000000,128.000000) scale(0.100000,-0.100000)"
fill="#000000" stroke="none">
<path d="M30 1269 c0 -15 18 -47 43 -76 12 -13 22 -28 21 -31 0 -4 10 -15 23
-25 13 -10 23 -22 23 -27 0 -5 12 -22 26 -37 14 -15 39 -47 55 -71 16 -23 33
-48 39 -55 6 -6 24 -27 40 -46 16 -19 32 -43 36 -53 3 -10 9 -18 14 -18 5 0
18 -16 30 -35 12 -20 27 -41 34 -48 22 -23 56 -70 56 -77 0 -5 -101 -140 -225
-302 -187 -244 -223 -295 -210 -304 8 -6 11 -15 7 -19 -4 -5 -1 -5 6 -1 17 10
63 15 57 6 -2 -3 11 -6 30 -6 27 1 31 3 22 15 -10 12 -9 13 6 8 10 -4 16 -3
12 2 -9 16 6 40 21 34 8 -3 14 -2 13 3 -4 21 2 35 12 29 6 -4 9 0 7 11 -2 12
2 18 11 16 9 -2 11 3 7 13 -3 9 -2 13 4 10 6 -3 10 1 10 9 0 8 4 18 10 21 6 3
7 -1 4 -12 -5 -17 -5 -17 6 0 6 9 8 22 4 29 -4 7 -3 8 4 4 7 -4 12 -1 12 8 0
8 5 18 12 22 7 5 8 3 3 -6 -5 -9 -4 -11 4 -6 6 4 9 11 6 16 -7 11 40 62 48 53
4 -3 5 4 2 15 -2 13 1 21 8 19 7 -1 11 4 10 10 -2 7 2 13 8 13 5 0 7 6 3 13
-6 8 -3 8 9 -1 14 -12 16 -11 12 7 -3 14 4 27 21 37 13 9 24 23 24 31 0 8 5
11 10 8 6 -3 10 2 10 12 1 10 9 28 19 41 20 23 38 31 25 10 -4 -7 -3 -8 5 -4
9 6 9 11 0 22 -10 12 -9 13 6 8 13 -5 16 -4 11 4 -4 7 -2 12 4 12 6 0 9 3 6 8
-5 9 19 43 31 43 4 0 7 7 6 15 0 10 4 13 14 10 10 -4 13 -2 10 8 -4 9 5 24 21
36 15 12 21 18 13 14 -9 -5 -12 -3 -7 4 4 7 14 12 21 12 9 0 12 6 8 17 -4 11
-3 14 5 9 27 -16 10 34 -30 90 -23 32 -45 61 -48 64 -3 3 -63 80 -133 172 -70
92 -134 174 -143 182 -12 13 -43 16 -160 16 -95 0 -144 -4 -144 -11z"/>
<path d="M1019 1148 c-57 -73 -155 -200 -219 -283 -64 -82 -123 -160 -131
-172 -7 -13 -17 -23 -22 -23 -4 0 -5 5 -1 12 4 7 3 8 -5 4 -6 -4 -9 -12 -6
-17 8 -13 -34 -71 -46 -63 -5 3 -9 2 -8 -3 1 -4 -1 -20 -5 -35 -8 -28 9 -61
61 -117 12 -14 19 -29 16 -35 -3 -6 -3 -8 2 -4 5 5 20 -9 34 -30 14 -20 35
-48 48 -62 13 -14 23 -28 23 -32 0 -3 6 -13 13 -20 33 -33 66 -85 59 -92 -4
-4 -1 -6 6 -4 8 2 19 -6 25 -16 7 -11 20 -29 29 -39 10 -11 15 -24 12 -28 -2
-4 1 -11 7 -15 8 -5 10 -2 4 7 -4 8 7 -2 25 -21 18 -19 30 -30 26 -24 -4 8 8
13 33 16 32 3 37 1 29 -10 -8 -9 -7 -11 6 -6 9 3 16 9 16 13 0 3 20 6 44 6 24
0 42 -3 40 -7 -2 -4 0 -9 6 -13 5 -3 10 0 10 8 0 7 7 14 15 14 8 0 12 -4 10
-8 -3 -4 2 -9 10 -12 9 -4 12 -1 9 7 -4 10 2 12 20 9 40 -8 26 26 -51 125 -37
48 -105 137 -151 197 -46 61 -94 124 -107 140 -97 126 -113 150 -103 163 6 7
17 11 25 8 10 -4 11 -1 3 14 -7 13 -7 21 2 26 7 5 8 3 3 -6 -5 -9 -4 -11 3 -6
7 4 12 13 12 21 0 8 9 20 20 28 11 8 17 17 12 22 -4 4 2 5 12 1 16 -5 17 -4 6
9 -11 13 -10 14 5 9 12 -5 16 -4 11 4 -3 6 1 15 10 20 9 5 16 13 16 18 0 5 4
8 10 6 5 -1 7 2 4 7 -8 12 4 41 16 41 6 0 4 -8 -3 -17 -9 -11 -10 -14 -2 -9 7
4 18 16 24 28 9 16 8 19 -2 13 -8 -6 -10 -4 -5 4 5 7 14 10 21 7 9 -3 11 2 7
16 -4 16 -2 19 8 13 10 -6 12 -4 7 8 -4 12 -2 14 10 10 13 -5 15 -2 10 11 -4
10 -3 15 3 11 6 -3 10 3 10 14 0 11 4 23 10 26 6 4 7 -1 4 -12 -6 -15 -4 -15
9 2 19 23 22 39 5 29 -7 -4 -8 -3 -4 4 4 7 13 12 20 12 7 0 21 10 32 23 l19
22 -25 -20 -24 -20 24 31 c14 17 28 29 33 27 4 -2 7 6 7 17 0 15 5 20 14 17 9
-4 13 0 11 11 -3 21 23 52 44 53 9 0 11 3 5 5 -7 3 -10 14 -7 24 5 18 0 20
-55 20 l-61 0 -102 -132z"/>
<path d="M1209 1203 c-13 -16 -12 -17 4 -4 9 7 17 15 17 17 0 8 -8 3 -21 -13z"/>
<path d="M435 420 c-3 -5 -1 -10 4 -10 6 0 11 5 11 10 0 6 -2 10 -4 10 -3 0
-8 -4 -11 -10z"/>
</g>
</svg>
